<?xml version="1.0" encoding="UTF-8" standalone="no"?>
<!-- Created with Inkscape (http://www.inkscape.org/) -->

<svg
   width="9.8340454mm"
   height="11.999917mm"
   viewBox="0 0 9.8340457 11.999917"
   version="1.1"
   id="svg1822"
   sodipodi:docname="SloBloLogo.svg"
   inkscape:version="1.2.2 (b0a84865, 2022-12-01)"
   xmlns:inkscape="http://www.inkscape.org/namespaces/inkscape"
   xmlns:sodipodi="http://sodipodi.sourceforge.net/DTD/sodipodi-0.dtd"
   xmlns="http://www.w3.org/2000/svg"
   xmlns:svg="http://www.w3.org/2000/svg">
  <sodipodi:namedview
     id="namedview1824"
     pagecolor="#ffffff"
     bordercolor="#666666"
     borderopacity="1.0"
     inkscape:showpageshadow="2"
     inkscape:pageopacity="0.0"
     inkscape:pagecheckerboard="0"
     inkscape:deskcolor="#d1d1d1"
     inkscape:document-units="mm"
     showgrid="false"
     inkscape:zoom="2.4125252"
     inkscape:cx="144.45445"
     inkscape:cy="45.388127"
     inkscape:window-width="2056"
     inkscape:window-height="1229"
     inkscape:window-x="2581"
     inkscape:window-y="575"
     inkscape:window-maximized="0"
     inkscape:current-layer="g3409" />
  <defs
     id="defs1819" />
  <g
     inkscape:label="F.Cu"
     inkscape:groupmode="layer"
     id="g3405"
     transform="translate(11.247604,25.897047)">
    <path
       sodipodi:nodetypes="csssccccsccscccccccscsssscccsscccsccsccccccccsscsccsscccccsscccccscscccccsccscccccccccccssscsscsscccsccsccsscscscccsccccccccccccccccccccccccccccccccccccccccsccscsccscssscscssssssscc"
       inkscape:connector-curvature="0"
       id="path1196"
       d="m -6.5858141,-13.918791 c -0.4576256,-0.06146 -0.7926431,-0.276763 -0.936333,-0.601845 -0.074909,-0.169468 -0.076858,-0.197203 -0.084154,-1.194182 -0.009,-1.234756 -9.677e-4,-1.326537 0.1373278,-1.567918 0.056519,-0.09864 0.088944,-0.136592 0.1891933,-0.221475 0.1005661,-0.08514 0.1464793,-0.113207 0.2720624,-0.166241 0.083091,-0.03514 0.2037806,-0.07501 0.2681929,-0.08869 0.1169953,-0.02483 0.3562053,-0.05096 0.3769567,-0.04109 0.00605,0.0034 0.01098,0.148024 0.01098,0.322556 v 0.317335 l -0.035293,0.0198 c -0.075422,0.04235 -0.074504,0.02626 -0.074504,1.292465 0,1.264084 -9.23e-4,1.247858 0.073933,1.289841 l 0.035855,0.02007 v 0.319222 0.319226 l -0.054895,-0.0014 c -0.030193,-6.43e-4 -0.1108913,-0.0083 -0.1793289,-0.0179 z m 0.3659774,-0.298368 c 0,-0.31877 1.84e-4,-0.320647 0.035617,-0.365343 0.020325,-0.0257 0.040755,-0.07566 0.047577,-0.116457 0.0066,-0.0393 0.011951,-0.570536 0.011951,-1.180431 0,-1.17268 -0.00191,-1.209756 -0.067046,-1.260161 -0.026333,-0.02039 -0.028112,-0.04219 -0.028112,-0.344413 v -0.322645 l 0.062215,0.006 c 0.1788737,0.0169 0.279326,0.0341 0.3987882,0.06807 0.4389383,0.125214 0.6979124,0.397414 0.757294,0.795957 0.026966,0.181018 0.026329,1.977102 -7.603e-4,2.15933 -0.02405,0.16169 -0.072482,0.295452 -0.1446867,0.399585 -0.1894333,0.273199 -0.5175236,0.4323 -0.9740228,0.472337 l -0.098814,0.0082 z m -3.8846983,-3.780591 c -0.358245,-0.0271 -0.648267,-0.129922 -0.84393,-0.298972 -0.05238,-0.04526 -0.113727,-0.11189 -0.136193,-0.147957 -0.09132,-0.146595 -0.141307,-0.423193 -0.141602,-0.783326 l -1.49e-4,-0.184817 h 0.534326 0.534328 l 0.0014,0.310114 c 0.0014,0.339314 0.01224,0.405813 0.07292,0.444338 0.05189,0.03297 0.1795345,0.03336 0.2315678,7.83e-4 0.074467,-0.04648 0.096422,-0.107112 0.101674,-0.280565 0.0054,-0.180761 -0.01133,-0.278133 -0.063827,-0.370131 -0.045284,-0.07936 -0.1473499,-0.150341 -0.5484818,-0.381523 -0.157004,-0.09052 -0.295108,-0.172337 -0.3069,-0.181885 -0.01832,-0.01487 0.109988,-0.0174 0.8719357,-0.0174 h 0.893368 l 0.030422,0.03529 c 0.05537,0.06413 0.1197672,0.186059 0.1494337,0.283005 0.1073668,0.350853 0.087012,0.917799 -0.040647,1.13197 -0.1050862,0.176307 -0.3694448,0.330273 -0.6845481,0.39869 -0.1216968,0.02643 -0.4274137,0.0591 -0.5031709,0.05367 -0.012067,-7.81e-4 -0.080354,-0.006 -0.1517284,-0.0114 z m 7.1811151,-4.01e-4 c -0.4575375,-0.03524 -0.807922,-0.21637 -0.9891069,-0.511491 -0.1135648,-0.184974 -0.1406297,-0.376204 -0.1406868,-0.99403 l -3.56e-5,-0.38529 h 0.5699937 0.5699936 l 0.00525,0.573241 c 0.0054,0.601783 0.0087,0.631594 0.071889,0.665385 0.016925,0.0087 0.060576,0.0164 0.096999,0.0164 0.080051,0 0.1296375,-0.03573 0.1521529,-0.109751 0.00834,-0.02741 0.018327,-0.289925 0.022715,-0.597144 l 0.0078,-0.548181 h 0.5691519 0.5691503 l -2.4e-4,0.278787 c -3.2e-4,0.360685 -0.023555,0.751256 -0.052023,0.872313 -0.051048,0.217064 -0.2308922,0.440469 -0.4559387,0.566366 -0.2450758,0.137105 -0.62018,0.202321 -0.9970444,0.173342 z M -7.186017,-19.93755 c 0,-1.562275 0.00319,-1.867733 0.020008,-1.879638 0.014335,-0.01019 0.1774206,-0.0133 0.5745847,-0.01096 l 0.5545717,0.0038 0.00374,1.500452 0.00374,1.500457 h 0.3439595 0.3439598 v 0.375898 0.375897 h -0.9222682 -0.9222634 z m -3.777638,-0.136525 c -0.111834,-0.09784 -0.199863,-0.237261 -0.250977,-0.397531 -0.02825,-0.08866 -0.03202,-0.132747 -0.03292,-0.382162 -0.0012,-0.324379 0.01804,-0.433498 0.102621,-0.587698 0.105076,-0.191537 0.346106,-0.338351 0.672362,-0.409522 0.287325,-0.06273 0.7437744,-0.05314 1.0285779,0.02161 0.2815992,0.07385 0.5356524,0.239501 0.602716,0.392973 0.056864,0.130131 0.075352,0.240811 0.084223,0.504331 l 0.00857,0.253729 h -0.5268777 -0.526889 l -0.00848,-0.222405 c -0.00465,-0.122325 -0.015788,-0.243544 -0.024744,-0.269373 -0.021081,-0.06086 -0.08233,-0.0898 -0.1719422,-0.08113 -0.135132,0.01302 -0.188393,0.114146 -0.176189,0.334481 0.01254,0.22589 0.06618,0.29263 0.3584695,0.445891 0.2583725,0.135468 0.5365281,0.295844 0.6664645,0.384259 0.070452,0.04793 0.1280922,0.08948 0.1280922,0.09231 0,0.0033 -0.4131203,0.006 -0.9180467,0.006 H -10.86667 Z m 6.9104414,-0.306689 c 4.41e-5,-0.424226 0.017176,-0.685853 0.052709,-0.804693 0.031879,-0.106628 0.1111115,-0.242554 0.1912883,-0.328174 0.2354174,-0.251407 0.598483,-0.379927 1.0734879,-0.379995 0.7266171,-1.11e-4 1.2155655,0.328184 1.2874593,0.864438 0.00879,0.06546 0.020183,0.326248 0.025341,0.579506 l 0.00937,0.460475 h -0.5717702 -0.5717721 l -0.00675,-0.56071 c -0.00455,-0.377887 -0.012408,-0.57585 -0.023946,-0.60713 -0.036168,-0.09798 -0.1638927,-0.130226 -0.2505194,-0.06315 -0.066078,0.05107 -0.072843,0.11676 -0.072942,0.707938 l -1.12e-4,0.523123 h -0.570932 -0.5709253 l 2.97e-5,-0.39156 z m -3.5390869,-3.63993 0.00373,-1.876353 h 0.6148426 0.6148424 l 0.00395,0.328909 0.00395,0.32891 h -0.051478 -0.051479 v 0.406433 0.406422 l 0.047575,0.0045 0.047575,0.0045 0.00398,0.297584 0.00398,0.297588 h -0.051502 -0.051504 v 0.513723 0.513728 h 0.051235 0.051234 v 0.325778 0.325777 h -0.6222289 -0.6222093 z m 1.3724638,1.545471 v -0.334822 l 0.042939,-0.03088 c 0.075416,-0.05436 0.081493,-0.09019 0.081493,-0.481183 0,-0.332041 -0.00199,-0.360615 -0.029276,-0.407218 -0.016106,-0.02756 -0.044101,-0.05576 -0.062216,-0.0625 -0.032907,-0.01241 -0.032938,-0.01265 -0.032938,-0.328066 0,-0.305264 9.525e-4,-0.315957 0.029444,-0.323696 0.016188,-0.0051 0.039629,-0.0248 0.052074,-0.04545 0.059627,-0.0987 0.066357,-0.53105 0.00996,-0.639753 -0.016763,-0.0323 -0.044209,-0.06611 -0.060981,-0.07504 -0.029659,-0.01589 -0.030492,-0.02548 -0.030492,-0.350404 v -0.3341 l 0.091491,0.006 c 0.4384617,0.02802 0.6416455,0.08896 0.8234911,0.247163 0.1722855,0.149904 0.2414523,0.311283 0.2718342,0.634249 0.031759,0.337621 -0.023249,0.576103 -0.1558946,0.675782 -0.065819,0.04951 -0.1771779,0.09795 -0.3059928,0.133226 l -0.1021767,0.02804 0.065576,0.01493 c 0.1131204,0.02575 0.3015818,0.108028 0.3689376,0.161167 0.080506,0.0635 0.1316643,0.142823 0.1752338,0.27164 0.032461,0.09596 0.033774,0.117221 0.033697,0.544672 -7.2e-5,0.418463 -0.00194,0.451304 -0.032638,0.554362 -0.041259,0.138805 -0.090732,0.222306 -0.1738499,0.293452 -0.1390639,0.119027 -0.3303208,0.161 -0.7998734,0.175538 l -0.2598441,0.0074 z"
       style="display:inline;fill:#000000;fill-opacity:1;stroke:none;stroke-width:0.0669815"
       inkscape:label="SloBlo" />
  </g>
  <g
     inkscape:label="F.Mask-auto"
     inkscape:groupmode="layer"
     id="g3407"
     transform="translate(11.247604,25.897047)">
    <path
       sodipodi:nodetypes="csssccccsccscccccccscsssscccsscccsccsccccccccsscsccsscccccsscccccscscccccsccscccccccccccssscsscsscccsccsccsscscscccsccccccccccccccccccccccccccccccccccccccccsccscsccscssscscssssssscc"
       inkscape:connector-curvature="0"
       id="path6386"
       d="m -6.5858141,-13.918791 c -0.4576256,-0.06146 -0.7926431,-0.276763 -0.936333,-0.601845 -0.074909,-0.169468 -0.076858,-0.197203 -0.084154,-1.194182 -0.009,-1.234756 -9.677e-4,-1.326537 0.1373278,-1.567918 0.056519,-0.09864 0.088944,-0.136592 0.1891933,-0.221475 0.1005661,-0.08514 0.1464793,-0.113207 0.2720624,-0.166241 0.083091,-0.03514 0.2037806,-0.07501 0.2681929,-0.08869 0.1169953,-0.02483 0.3562053,-0.05096 0.3769567,-0.04109 0.00605,0.0034 0.01098,0.148024 0.01098,0.322556 v 0.317335 l -0.035293,0.0198 c -0.075422,0.04235 -0.074504,0.02626 -0.074504,1.292465 0,1.264084 -9.23e-4,1.247858 0.073933,1.289841 l 0.035855,0.02007 v 0.319222 0.319226 l -0.054895,-0.0014 c -0.030193,-6.43e-4 -0.1108913,-0.0083 -0.1793289,-0.0179 z m 0.3659774,-0.298368 c 0,-0.31877 1.84e-4,-0.320647 0.035617,-0.365343 0.020325,-0.0257 0.040755,-0.07566 0.047577,-0.116457 0.0066,-0.0393 0.011951,-0.570536 0.011951,-1.180431 0,-1.17268 -0.00191,-1.209756 -0.067046,-1.260161 -0.026333,-0.02039 -0.028112,-0.04219 -0.028112,-0.344413 v -0.322645 l 0.062215,0.006 c 0.1788737,0.0169 0.279326,0.0341 0.3987882,0.06807 0.4389383,0.125214 0.6979124,0.397414 0.757294,0.795957 0.026966,0.181018 0.026329,1.977102 -7.603e-4,2.15933 -0.02405,0.16169 -0.072482,0.295452 -0.1446867,0.399585 -0.1894333,0.273199 -0.5175236,0.4323 -0.9740228,0.472337 l -0.098814,0.0082 z m -3.8846983,-3.780591 c -0.358245,-0.0271 -0.648267,-0.129922 -0.84393,-0.298972 -0.05238,-0.04526 -0.113727,-0.11189 -0.136193,-0.147957 -0.09132,-0.146595 -0.141307,-0.423193 -0.141602,-0.783326 l -1.49e-4,-0.184817 h 0.534326 0.534328 l 0.0014,0.310114 c 0.0014,0.339314 0.01224,0.405813 0.07292,0.444338 0.05189,0.03297 0.1795345,0.03336 0.2315678,7.83e-4 0.074467,-0.04648 0.096422,-0.107112 0.101674,-0.280565 0.0054,-0.180761 -0.01133,-0.278133 -0.063827,-0.370131 -0.045284,-0.07936 -0.1473499,-0.150341 -0.5484818,-0.381523 -0.157004,-0.09052 -0.295108,-0.172337 -0.3069,-0.181885 -0.01832,-0.01487 0.109988,-0.0174 0.8719357,-0.0174 h 0.893368 l 0.030422,0.03529 c 0.05537,0.06413 0.1197672,0.186059 0.1494337,0.283005 0.1073668,0.350853 0.087012,0.917799 -0.040647,1.13197 -0.1050862,0.176307 -0.3694448,0.330273 -0.6845481,0.39869 -0.1216968,0.02643 -0.4274137,0.0591 -0.5031709,0.05367 -0.012067,-7.81e-4 -0.080354,-0.006 -0.1517284,-0.0114 z m 7.1811151,-4.01e-4 c -0.4575375,-0.03524 -0.807922,-0.21637 -0.9891069,-0.511491 -0.1135648,-0.184974 -0.1406297,-0.376204 -0.1406868,-0.99403 l -3.56e-5,-0.38529 h 0.5699937 0.5699936 l 0.00525,0.573241 c 0.0054,0.601783 0.0087,0.631594 0.071889,0.665385 0.016925,0.0087 0.060576,0.0164 0.096999,0.0164 0.080051,0 0.1296375,-0.03573 0.1521529,-0.109751 0.00834,-0.02741 0.018327,-0.289925 0.022715,-0.597144 l 0.0078,-0.548181 h 0.5691519 0.5691503 l -2.4e-4,0.278787 c -3.2e-4,0.360685 -0.023555,0.751256 -0.052023,0.872313 -0.051048,0.217064 -0.2308922,0.440469 -0.4559387,0.566366 -0.2450758,0.137105 -0.62018,0.202321 -0.9970444,0.173342 z M -7.186017,-19.93755 c 0,-1.562275 0.00319,-1.867733 0.020008,-1.879638 0.014335,-0.01019 0.1774206,-0.0133 0.5745847,-0.01096 l 0.5545717,0.0038 0.00374,1.500452 0.00374,1.500457 h 0.3439595 0.3439598 v 0.375898 0.375897 h -0.9222682 -0.9222634 z m -3.777638,-0.136525 c -0.111834,-0.09784 -0.199863,-0.237261 -0.250977,-0.397531 -0.02825,-0.08866 -0.03202,-0.132747 -0.03292,-0.382162 -0.0012,-0.324379 0.01804,-0.433498 0.102621,-0.587698 0.105076,-0.191537 0.346106,-0.338351 0.672362,-0.409522 0.287325,-0.06273 0.7437744,-0.05314 1.0285779,0.02161 0.2815992,0.07385 0.5356524,0.239501 0.602716,0.392973 0.056864,0.130131 0.075352,0.240811 0.084223,0.504331 l 0.00857,0.253729 h -0.5268777 -0.526889 l -0.00848,-0.222405 c -0.00465,-0.122325 -0.015788,-0.243544 -0.024744,-0.269373 -0.021081,-0.06086 -0.08233,-0.0898 -0.1719422,-0.08113 -0.135132,0.01302 -0.188393,0.114146 -0.176189,0.334481 0.01254,0.22589 0.06618,0.29263 0.3584695,0.445891 0.2583725,0.135468 0.5365281,0.295844 0.6664645,0.384259 0.070452,0.04793 0.1280922,0.08948 0.1280922,0.09231 0,0.0033 -0.4131203,0.006 -0.9180467,0.006 H -10.86667 Z m 6.9104414,-0.306689 c 4.41e-5,-0.424226 0.017176,-0.685853 0.052709,-0.804693 0.031879,-0.106628 0.1111115,-0.242554 0.1912883,-0.328174 0.2354174,-0.251407 0.598483,-0.379927 1.0734879,-0.379995 0.7266171,-1.11e-4 1.2155655,0.328184 1.2874593,0.864438 0.00879,0.06546 0.020183,0.326248 0.025341,0.579506 l 0.00937,0.460475 h -0.5717702 -0.5717721 l -0.00675,-0.56071 c -0.00455,-0.377887 -0.012408,-0.57585 -0.023946,-0.60713 -0.036168,-0.09798 -0.1638927,-0.130226 -0.2505194,-0.06315 -0.066078,0.05107 -0.072843,0.11676 -0.072942,0.707938 l -1.12e-4,0.523123 h -0.570932 -0.5709253 l 2.97e-5,-0.39156 z m -3.5390869,-3.63993 0.00373,-1.876353 h 0.6148426 0.6148424 l 0.00395,0.328909 0.00395,0.32891 h -0.051478 -0.051479 v 0.406433 0.406422 l 0.047575,0.0045 0.047575,0.0045 0.00398,0.297584 0.00398,0.297588 h -0.051502 -0.051504 v 0.513723 0.513728 h 0.051235 0.051234 v 0.325778 0.325777 h -0.6222289 -0.6222093 z m 1.3724638,1.545471 v -0.334822 l 0.042939,-0.03088 c 0.075416,-0.05436 0.081493,-0.09019 0.081493,-0.481183 0,-0.332041 -0.00199,-0.360615 -0.029276,-0.407218 -0.016106,-0.02756 -0.044101,-0.05576 -0.062216,-0.0625 -0.032907,-0.01241 -0.032938,-0.01265 -0.032938,-0.328066 0,-0.305264 9.525e-4,-0.315957 0.029444,-0.323696 0.016188,-0.0051 0.039629,-0.0248 0.052074,-0.04545 0.059627,-0.0987 0.066357,-0.53105 0.00996,-0.639753 -0.016763,-0.0323 -0.044209,-0.06611 -0.060981,-0.07504 -0.029659,-0.01589 -0.030492,-0.02548 -0.030492,-0.350404 v -0.3341 l 0.091491,0.006 c 0.4384617,0.02802 0.6416455,0.08896 0.8234911,0.247163 0.1722855,0.149904 0.2414523,0.311283 0.2718342,0.634249 0.031759,0.337621 -0.023249,0.576103 -0.1558946,0.675782 -0.065819,0.04951 -0.1771779,0.09795 -0.3059928,0.133226 l -0.1021767,0.02804 0.065576,0.01493 c 0.1131204,0.02575 0.3015818,0.108028 0.3689376,0.161167 0.080506,0.0635 0.1316643,0.142823 0.1752338,0.27164 0.032461,0.09596 0.033774,0.117221 0.033697,0.544672 -7.2e-5,0.418463 -0.00194,0.451304 -0.032638,0.554362 -0.041259,0.138805 -0.090732,0.222306 -0.1738499,0.293452 -0.1390639,0.119027 -0.3303208,0.161 -0.7998734,0.175538 l -0.2598441,0.0074 z"
       style="display:inline;fill:#000000;fill-opacity:1;stroke:none;stroke-width:0.0669815"
       inkscape:label="SloBlo" />
  </g>
  <g
     inkscape:label="F.SilkS"
     inkscape:groupmode="layer"
     id="g3409"
     transform="translate(11.247604,25.897047)">
    <path
       inkscape:connector-curvature="0"
       id="path1200"
       d="m -9.9966785,-24.151096 c -0.2902115,0.04796 0.014058,0.308667 0.1010469,0.40737 0.6010417,0.653606 1.1361115,1.359068 1.7841366,1.977598 0.2042908,0.07862 0.2309143,-0.174377 0.086477,-0.249364 -0.6309807,-0.706556 -1.2182543,-1.448447 -1.8969591,-2.120434 -0.022623,-0.01102 -0.048408,-0.01801 -0.074656,-0.01508 z m 7.3137964,3.02e-4 c -0.2879769,0.13171 -0.4240438,0.436226 -0.6459657,0.636811 -0.4658682,0.54545 -0.9740914,1.069924 -1.4054241,1.634296 -0.020477,0.177453 0.2536375,0.157995 0.307656,0.01267 0.6416647,-0.719536 1.2991459,-1.435302 1.9070099,-2.172877 0.00374,-0.07947 -0.079315,-0.120389 -0.1632761,-0.111 z m -5.4562787,6.126374 c -0.6855489,0.743066 -1.3606608,1.501135 -2.0024282,2.269352 0.05439,0.231998 0.3475262,0.04915 0.413879,-0.08331 0.6029027,-0.689516 1.2405373,-1.363232 1.8004641,-2.076872 0.043846,-0.08535 -0.1483633,-0.19076 -0.2119149,-0.109236 z m 3.4949053,-0.01489 c -0.2391061,0.113371 0.0889,0.316687 0.1619266,0.44061 0.5851695,0.644759 1.11632,1.334252 1.748546,1.943427 0.1928603,0.07046 0.268764,-0.15308 0.1040631,-0.237983 -0.6421114,-0.707082 -1.2258757,-1.459612 -1.9163001,-2.131354 -0.028761,-0.01279 -0.066,-0.02775 -0.098235,-0.01481 z"
       style="display:inline;fill:#000000;fill-opacity:1;stroke:none;stroke-width:0.0669815"
       inkscape:label="Rays" />
  </g>
</svg>
